<svg xmlns="http://www.w3.org/2000/svg" width="467.287" height="123.665" viewBox="0 0 467.287 123.665">
  <g id="组_3453" data-name="组 3453" transform="translate(-734.607 -376.013)">
    <g id="组_13" data-name="组 13" transform="translate(734.607 376.013)">
      <path id="路径_1" data-name="路径 1" d="M198.035,107.964" transform="translate(-16.174 -53.684)" fill="none" stroke="#fff" stroke-linecap="round" stroke-linejoin="round" stroke-width="9.074"/>
      <path id="路径_2" data-name="路径 2" d="M198.035,76" transform="translate(-16.174 -55.243)" fill="none" stroke="#fff" stroke-linecap="round" stroke-linejoin="round" stroke-width="9.074"/>
      <path id="路径_3" data-name="路径 3" d="M198.3,126.511" transform="translate(-16.161 -52.78)" fill="none" stroke="#fff" stroke-linecap="round" stroke-linejoin="round" stroke-width="9.661"/>
      <path id="路径_4" data-name="路径 4" d="M198.3,92.483" transform="translate(-16.161 -54.439)" fill="none" stroke="#fff" stroke-linecap="round" stroke-linejoin="round" stroke-width="9.661"/>
      <path id="路径_5" data-name="路径 5" d="M87.234,59.219a20.654,20.654,0,0,0-10.046-3.011H30.214a5.583,5.583,0,0,0-5.584,5.584V82.229H35.8V67.374H77.111c2.051.061,8.745,1.1,8.745,11.909v28.771c0,10.81-6.693,11.848-8.668,11.908H30.214a5.583,5.583,0,1,0,0,11.166l46.974,0a20.669,20.669,0,0,0,10.046-3.012c4.466-2.739,9.788-8.445,9.788-20.063V79.282C97.022,67.664,91.7,61.958,87.234,59.219Z" transform="translate(-24.63 -56.208)" fill="#fff"/>
      <path id="路径_6" data-name="路径 6" d="M254.55,59.219A20.654,20.654,0,0,0,244.5,56.208H197.53a5.583,5.583,0,0,0-5.584,5.584v68.734h11.167V67.374h41.314c2.051.061,8.745,1.1,8.745,11.909v6.834c0,10.81-6.693,11.848-8.667,11.908H223.931a5.584,5.584,0,0,0,0,11.167H244.5a20.661,20.661,0,0,0,10.046-3.012c4.465-2.739,9.788-8.445,9.788-20.063V79.282C264.338,67.664,259.014,61.958,254.55,59.219Z" transform="translate(-16.471 -56.208)" fill="#fff"/>
      <path id="路径_7" data-name="路径 7" d="M336.443,56.216H282.232V67.383h54.211a5.584,5.584,0,0,0,0-11.167Z" transform="translate(-12.068 -56.208)" fill="#fff"/>
      <path id="路径_8" data-name="路径 8" d="M305.415,123.729a5.583,5.583,0,0,0,11.166,0V81.019H305.415Z" transform="translate(-10.938 -54.998)" fill="#fff"/>
      <g id="组_7" data-name="组 7" transform="translate(94.689 0.013)">
        <path id="路径_9" data-name="路径 9" d="M167.823,117.009H114.916v11.166h52.907a5.583,5.583,0,0,0,0-11.166Z" transform="translate(-114.916 -53.256)" fill="#fff"/>
        <path id="路径_10" data-name="路径 10" d="M167.823,86.614H114.916V97.781h52.907a5.584,5.584,0,0,0,0-11.167Z" transform="translate(-114.916 -54.738)" fill="#fff"/>
        <path id="路径_11" data-name="路径 11" d="M167.823,56.22H114.916V67.386h52.907a5.583,5.583,0,0,0,0-11.166Z" transform="translate(-114.916 -56.22)" fill="#fff"/>
      </g>
      <g id="组_9" data-name="组 9" transform="translate(329.957 0.012)">
        <path id="路径_12" data-name="路径 12" d="M400.16,56.22h-22.3l37.363,37.157-37.363,37.158h22.3l37.363-37.158Z" transform="translate(-337.362 -56.22)" fill="#ffd422"/>
        <g id="组_8" data-name="组 8" transform="translate(0 64.568)">
          <path id="路径_13" data-name="路径 13" d="M339.245,117.786v9.747h27.918l10.03-9.747Z" transform="translate(-339.245 -117.786)" fill="#ffd422"/>
        </g>
      </g>
      <g id="组_11" data-name="组 11" transform="translate(425.098 0.012)">
        <g id="组_10" data-name="组 10">
          <path id="路径_14" data-name="路径 14" d="M472.151,56.22h-22.3L429.963,76l11.148,11.087Z" transform="translate(-429.963 -56.22)" fill="#fff"/>
        </g>
        <path id="路径_15" data-name="路径 15" d="M429.97,108.739l19.884,19.775h22.3L441.118,97.653Z" transform="translate(-429.962 -54.199)" fill="#fff"/>
      </g>
      <g id="组_12" data-name="组 12" transform="translate(46.201 108.27)">
        <path id="路径_16" data-name="路径 16" d="M79.9,159.7v2.6H74.729a3.354,3.354,0,0,0-2.824,1.134,8.246,8.246,0,0,0-.01,7.4,3.354,3.354,0,0,0,2.835,1.134H79.9v2.6H74.729a5.553,5.553,0,0,1-4.49-1.84q-1.556-1.839-1.556-5.583,0-3.768,1.556-5.606a5.553,5.553,0,0,1,4.49-1.839Z" transform="translate(-68.683 -159.432)" fill="#fff"/>
        <path id="路径_17" data-name="路径 17" d="M88.11,159.7v9.933a2.56,2.56,0,0,0,.525,1.728,2.13,2.13,0,0,0,1.695.605h2.379a2.113,2.113,0,0,0,1.665-.605,2.53,2.53,0,0,0,.535-1.728V159.7h2.3v10.13a5.1,5.1,0,0,1-1.09,3.547,4.2,4.2,0,0,1-3.251,1.189H90.052q-4.321,0-4.321-4.736V159.7Z" transform="translate(-67.852 -159.432)" fill="#fff"/>
        <path id="路径_18" data-name="路径 18" d="M113.8,159.7v2.6h-6.858a1.642,1.642,0,0,0-1.329.5,1.9,1.9,0,0,0-.415,1.266,2.4,2.4,0,0,0,.089.65,1.405,1.405,0,0,0,.317.573,1.522,1.522,0,0,0,.605.4,2.763,2.763,0,0,0,.97.144h3.133a5.584,5.584,0,0,1,2.24.385,3.654,3.654,0,0,1,1.377,1,3.484,3.484,0,0,1,.694,1.411,6.878,6.878,0,0,1,.188,1.585,6.008,6.008,0,0,1-.238,1.741,3.611,3.611,0,0,1-.753,1.376,3.508,3.508,0,0,1-1.318.913,5.132,5.132,0,0,1-1.953.331h-7.453v-2.6h7.532a1.749,1.749,0,0,0,1.4-.517,1.971,1.971,0,0,0,.446-1.332,2.519,2.519,0,0,0-.1-.694,1.459,1.459,0,0,0-.338-.595,1.7,1.7,0,0,0-.644-.408,2.936,2.936,0,0,0-1.021-.153h-3.112a5.5,5.5,0,0,1-2.2-.375,3.382,3.382,0,0,1-1.337-.991,3.584,3.584,0,0,1-.674-1.386,6.469,6.469,0,0,1-.189-1.543,6.071,6.071,0,0,1,.229-1.706,3.508,3.508,0,0,1,.733-1.355,3.391,3.391,0,0,1,1.3-.891,5.113,5.113,0,0,1,1.9-.319Z" transform="translate(-67.017 -159.432)" fill="#fff"/>
        <path id="路径_19" data-name="路径 19" d="M129.107,159.7v2.6H125.2v12.267h-2.359V162.295h-3.9v-2.6Z" transform="translate(-66.232 -159.432)" fill="#fff"/>
        <path id="路径_20" data-name="路径 20" d="M141.531,159.7a5.539,5.539,0,0,1,4.49,1.85q1.556,1.848,1.556,5.615,0,3.746-1.556,5.573a5.571,5.571,0,0,1-4.49,1.828h-1.824a5.569,5.569,0,0,1-4.49-1.828q-1.556-1.828-1.556-5.573,0-3.765,1.556-5.615a5.537,5.537,0,0,1,4.49-1.85Zm-1.824,2.6a3.342,3.342,0,0,0-2.824,1.144,6.163,6.163,0,0,0-.882,3.722,6.071,6.071,0,0,0,.872,3.679,3.369,3.369,0,0,0,2.835,1.122h1.824a3.331,3.331,0,0,0,2.8-1.134,6.058,6.058,0,0,0,.882-3.688,6.172,6.172,0,0,0-.873-3.7,3.312,3.312,0,0,0-2.814-1.144Z" transform="translate(-65.514 -159.432)" fill="#fff"/>
        <path id="路径_21" data-name="路径 21" d="M156.071,174.575h-2.319v-11.8a3.551,3.551,0,0,1,.793-2.412,3.031,3.031,0,0,1,2.418-.913,3.222,3.222,0,0,1,2.259.759,3.848,3.848,0,0,1,1.111,2.17l1.883,9.1q.179.837.892.837.694,0,.891-.837l1.884-9.1a4.01,4.01,0,0,1,1.06-2.17,3.069,3.069,0,0,1,2.23-.759,3.031,3.031,0,0,1,2.418.913,3.551,3.551,0,0,1,.793,2.412v11.8h-2.32V162.9a.87.87,0,0,0-.951-.948.879.879,0,0,0-.633.21,1.1,1.1,0,0,0-.3.583l-1.922,9.1a4.527,4.527,0,0,1-1.051,2.236,2.813,2.813,0,0,1-2.121.76,2.915,2.915,0,0,1-2.171-.772,4.308,4.308,0,0,1-1.06-2.224l-1.9-9.1a1.075,1.075,0,0,0-.307-.583.89.89,0,0,0-.625-.21.871.871,0,0,0-.951.948Z" transform="translate(-64.535 -159.444)" fill="#fff"/>
        <path id="路径_22" data-name="路径 22" d="M180.718,159.7v14.866h-2.339V159.7Z" transform="translate(-63.334 -159.432)" fill="#fff"/>
        <path id="路径_23" data-name="路径 23" d="M196.253,159.7a3.236,3.236,0,0,1,2.428.847,3.322,3.322,0,0,1,.823,2.411,3.911,3.911,0,0,1-.536,2.126,3.713,3.713,0,0,1-1.606,1.355l-7.294,3.458a1.175,1.175,0,0,0-.5.439,1.229,1.229,0,0,0-.177.661.985.985,0,0,0,.248.7.969.969,0,0,0,.743.264h8.821v2.6h-8.98a3.2,3.2,0,0,1-2.418-.848A3.351,3.351,0,0,1,187,171.3a3.915,3.915,0,0,1,.536-2.125,3.688,3.688,0,0,1,1.625-1.354l7.255-3.459a1.107,1.107,0,0,0,.694-1.1.894.894,0,0,0-1.011-.968h-8.623v-2.6Z" transform="translate(-62.914 -159.432)" fill="#fff"/>
        <path id="路径_24" data-name="路径 24" d="M206.678,174.575H204.1l4.7-13.215a2.769,2.769,0,0,1,1.061-1.486,3.246,3.246,0,0,1,1.754-.429,3.21,3.21,0,0,1,1.735.429,2.679,2.679,0,0,1,1.04,1.486l4.52,13.215h-2.6l-4.063-11.96a.659.659,0,0,0-.654-.507.691.691,0,0,0-.673.507Z" transform="translate(-62.079 -159.444)" fill="#fff"/>
        <path id="路径_25" data-name="路径 25" d="M231.734,159.7v2.6h-3.906v12.267H225.47V162.295h-3.9v-2.6Z" transform="translate(-61.228 -159.432)" fill="#fff"/>
        <path id="路径_26" data-name="路径 26" d="M239.477,159.7v14.866h-2.339V159.7Z" transform="translate(-60.468 -159.432)" fill="#fff"/>
        <path id="路径_27" data-name="路径 27" d="M253.626,159.7a5.536,5.536,0,0,1,4.489,1.85q1.557,1.848,1.556,5.615,0,3.746-1.556,5.573a5.569,5.569,0,0,1-4.489,1.828H251.8a5.569,5.569,0,0,1-4.49-1.828q-1.557-1.828-1.556-5.573,0-3.765,1.556-5.615a5.537,5.537,0,0,1,4.49-1.85Zm-1.824,2.6a3.344,3.344,0,0,0-2.825,1.144,6.171,6.171,0,0,0-.881,3.722,6.071,6.071,0,0,0,.872,3.679,3.368,3.368,0,0,0,2.835,1.122h1.824a3.332,3.332,0,0,0,2.8-1.134,6.065,6.065,0,0,0,.882-3.688,6.187,6.187,0,0,0-.872-3.7,3.317,3.317,0,0,0-2.815-1.144Z" transform="translate(-60.048 -159.432)" fill="#fff"/>
        <path id="路径_28" data-name="路径 28" d="M267.75,174.575h-2.338V162.682a3.511,3.511,0,0,1,.753-2.346,2.866,2.866,0,0,1,2.319-.891,2.831,2.831,0,0,1,2.111.737,5.069,5.069,0,0,1,1.139,2.016l3.906,9.492a1.3,1.3,0,0,0,.318.44.775.775,0,0,0,.534.176.746.746,0,0,0,.585-.232.864.864,0,0,0,.208-.605V159.708h2.36v11.87a3.517,3.517,0,0,1-.764,2.368,2.875,2.875,0,0,1-2.308.893,3.632,3.632,0,0,1-1.221-.188,2.577,2.577,0,0,1-.911-.551,3.449,3.449,0,0,1-.663-.869,6.2,6.2,0,0,1-.477-1.145l-3.9-9.492a.873.873,0,0,0-.833-.64.769.769,0,0,0-.6.232.9.9,0,0,0-.21.628Z" transform="translate(-59.09 -159.444)" fill="#fff"/>
        <path id="路径_29" data-name="路径 29" d="M301.646,159.7a6.144,6.144,0,0,1,2.033.3,3.679,3.679,0,0,1,1.386.837,3.309,3.309,0,0,1,.8,1.288,5.051,5.051,0,0,1,.258,1.653,3.976,3.976,0,0,1-.486,2.092,3.082,3.082,0,0,1-1.438,1.21,3.33,3.33,0,0,1,1.467,1.267,3.961,3.961,0,0,1,.515,2.126,5.044,5.044,0,0,1-.258,1.652,3.306,3.306,0,0,1-.8,1.288,3.813,3.813,0,0,1-1.388.848,5.931,5.931,0,0,1-2.031.308H295.76q-1.111,0-1.111-1.211V160.906q0-1.21,1.111-1.21Zm-4.7,6.276h4.757q2.061,0,2.062-1.784a1.782,1.782,0,0,0-2.043-1.938h-4.518a.231.231,0,0,0-.258.264Zm0,5.77c0,.163.086.243.258.243h4.558a2.11,2.11,0,0,0,1.567-.508,1.962,1.962,0,0,0,.495-1.432q0-1.916-2.062-1.915h-4.816Z" transform="translate(-57.664 -159.432)" fill="#fff"/>
        <path id="路径_30" data-name="路径 30" d="M313.549,159.7l3.746,6.364,3.786-6.364h2.775l-5.392,8.456v6.41h-2.359v-6.41l-5.391-8.456Z" transform="translate(-56.881 -159.432)" fill="#fff"/>
        <path id="路径_31" data-name="路径 31" d="M343.474,159.7a5.536,5.536,0,0,1,4.49,1.827q1.535,1.828,1.535,5.617,0,3.765-1.535,5.594a5.534,5.534,0,0,1-4.49,1.828h-4.717q-1.111,0-1.111-1.211V160.906q0-1.21,1.111-1.21Zm-3.488,12a.23.23,0,0,0,.257.264h3.231a3.312,3.312,0,0,0,2.815-1.145,8.3,8.3,0,0,0,.009-7.389,3.323,3.323,0,0,0-2.824-1.134h-3.231a.229.229,0,0,0-.257.263Z" transform="translate(-55.567 -159.432)" fill="#fff"/>
        <path id="路径_32" data-name="路径 32" d="M366.066,159.7v2.6h-6.7a2.043,2.043,0,0,0-1.547.507,1.92,1.92,0,0,0-.475,1.365q0,1.762,2.042,1.761h6.581v2.357h-6.641q-2.042,0-2.041,1.806a1.86,1.86,0,0,0,.5,1.377,2.078,2.078,0,0,0,1.526.5h6.779v2.6h-6.779a5.935,5.935,0,0,1-2.031-.308,3.791,3.791,0,0,1-1.386-.848,3.194,3.194,0,0,1-.794-1.288,5.108,5.108,0,0,1-.247-1.609,4.169,4.169,0,0,1,.495-2.125,3.185,3.185,0,0,1,1.428-1.288,3.318,3.318,0,0,1-1.884-3.349,4.982,4.982,0,0,1,.258-1.63,3.3,3.3,0,0,1,.8-1.288,3.668,3.668,0,0,1,1.388-.837,6.133,6.133,0,0,1,2.031-.3Z" transform="translate(-54.729 -159.432)" fill="#fff"/>
        <path id="路径_33" data-name="路径 33" d="M382.59,159.7v2.6h-6.858a1.642,1.642,0,0,0-1.329.5,1.9,1.9,0,0,0-.415,1.266,2.4,2.4,0,0,0,.089.65,1.406,1.406,0,0,0,.317.573,1.523,1.523,0,0,0,.605.4,2.764,2.764,0,0,0,.97.144H379.1a5.575,5.575,0,0,1,2.239.385,3.65,3.65,0,0,1,1.378,1,3.455,3.455,0,0,1,.693,1.411,6.824,6.824,0,0,1,.189,1.585,6.008,6.008,0,0,1-.238,1.741,3.611,3.611,0,0,1-.753,1.376,3.513,3.513,0,0,1-1.317.913,5.141,5.141,0,0,1-1.954.331h-7.452v-2.6h7.532a1.746,1.746,0,0,0,1.4-.517,1.967,1.967,0,0,0,.447-1.332,2.519,2.519,0,0,0-.1-.694,1.447,1.447,0,0,0-.338-.595,1.7,1.7,0,0,0-.644-.408,2.936,2.936,0,0,0-1.022-.153H376.05a5.5,5.5,0,0,1-2.2-.375,3.382,3.382,0,0,1-1.337-.991,3.569,3.569,0,0,1-.674-1.386,6.469,6.469,0,0,1-.189-1.543,6.071,6.071,0,0,1,.229-1.706,3.508,3.508,0,0,1,.733-1.355,3.4,3.4,0,0,1,1.3-.891,5.107,5.107,0,0,1,1.9-.319Z" transform="translate(-53.909 -159.432)" fill="#fff"/>
        <path id="路径_34" data-name="路径 34" d="M391.639,159.7v14.866H389.3V159.7Z" transform="translate(-53.048 -159.432)" fill="#fff"/>
        <path id="路径_35" data-name="路径 35" d="M405.607,159.7a4.735,4.735,0,0,1,1.942.363,3.792,3.792,0,0,1,1.338.969,3.879,3.879,0,0,1,.774,1.421,5.807,5.807,0,0,1,.246,1.695,6.311,6.311,0,0,1-.157,1.4,4.959,4.959,0,0,1-.5,1.3,3.945,3.945,0,0,1-.873,1.069,3.633,3.633,0,0,1-1.308.7l3.112,5.946h-2.6l-3.052-5.749h-3.489c-.224,0-.338.125-.338.375v5.374h-2.338v-5.881a2.666,2.666,0,0,1,.495-1.8,2.064,2.064,0,0,1,1.606-.552h5.213a1.893,1.893,0,0,0,.852-.176,1.588,1.588,0,0,0,.576-.461,2.028,2.028,0,0,0,.326-.661,2.718,2.718,0,0,0,.109-.771,2.206,2.206,0,0,0-.446-1.377,1.669,1.669,0,0,0-1.417-.583h-7.335v-2.6Z" transform="translate(-52.607 -159.432)" fill="#fff"/>
        <path id="路径_36" data-name="路径 36" d="M426.374,159.7v2.6h-6.7a2.042,2.042,0,0,0-1.547.507,1.915,1.915,0,0,0-.475,1.365q0,1.762,2.041,1.761h6.582v2.357h-6.641q-2.042,0-2.042,1.806a1.86,1.86,0,0,0,.5,1.377,2.077,2.077,0,0,0,1.526.5h6.779v2.6h-6.779a5.931,5.931,0,0,1-2.031-.308,3.8,3.8,0,0,1-1.388-.848,3.217,3.217,0,0,1-.794-1.288,5.107,5.107,0,0,1-.248-1.609,4.158,4.158,0,0,1,.5-2.125,3.177,3.177,0,0,1,1.427-1.288,3.319,3.319,0,0,1-1.884-3.349,4.982,4.982,0,0,1,.258-1.63,3.285,3.285,0,0,1,.8-1.288,3.671,3.671,0,0,1,1.386-.837,6.14,6.14,0,0,1,2.033-.3Z" transform="translate(-51.788 -159.432)" fill="#fff"/>
      </g>
    </g>
  </g>
</svg>
